<svg xmlns="http://www.w3.org/2000/svg" version="1.1" xmlns:xlink="http://www.w3.org/1999/xlink" xmlns:svgjs="http://svgjs.com/svgjs" width="512" height="512" x="0" y="0" viewBox="0 0 496 496.01906" style="enable-background:new 0 0 512 512" xml:space="preserve" class=""><g><path d="m495.144531 220.402344c-1.359375-2.6875-4.121093-4.382813-7.136719-4.382813h-46.414062l14.285156-78.570312c.6875-3.804688-1.429687-7.550781-5.046875-8.910157-3.640625-1.382812-7.695312.054688-9.679687 3.367188l-72 120c-1.488282 2.472656-1.519532 5.542969-.105469 8.066406 1.417969 2.503906 4.082031 4.046875 6.960937 4.046875h44.578126l-28.097657 77.261719c-1.359375 3.746094.238281 7.914062 3.75 9.792969 1.195313.640625 2.488281.945312 3.769531.945312 2.480469 0 4.90625-1.152343 6.457032-3.265625l88-120c1.773437-2.4375 2.039062-5.664062.679687-8.351562zm-68.488281 73.761718 12.871094-35.410156c.890625-2.453125.527344-5.183594-.96875-7.320312-1.496094-2.140625-3.941406-3.414063-6.550782-3.414063h-41.871093l42.152343-70.25-8.152343 44.824219c-.425781 2.335938.207031 4.738281 1.726562 6.554688 1.519531 1.816406 3.777344 2.871093 6.144531 2.871093h40.207032zm0 0" fill="#004975" data-original="#000000"></path><path d="m54.863281 131.898438c-1.992187-3.3125-6.039062-4.75-9.679687-3.367188-3.617188 1.359375-5.742188 5.113281-5.046875 8.910156l14.289062 78.578125h-46.417969c-3.015624 0-5.777343 1.695313-7.136718 4.382813-1.359375 2.6875-1.09375 5.914062.679687 8.351562l88 120c1.5625 2.113282 3.984375 3.265625 6.457031 3.265625 1.28125 0 2.566407-.304687 3.769532-.945312 3.511718-1.871094 5.109375-6.046875 3.75-9.792969l-28.09375-77.261719h44.574218c2.878907 0 5.542969-1.542969 6.960938-4.054687 1.421875-2.515625 1.382812-5.59375-.105469-8.066406zm9.144531 116.121093c-2.609374 0-5.054687 1.273438-6.550781 3.414063-1.503906 2.136718-1.855469 4.867187-.96875 7.320312l12.871094 35.410156-45.558594-62.144531h40.207031c2.367188 0 4.625-1.054687 6.144532-2.871093 1.519531-1.816407 2.160156-4.21875 1.726562-6.554688l-8.152344-44.824219 42.152344 70.25zm0 0" fill="#004975" data-original="#000000"></path><path d="m344.023438 36.699219c-30.910157-27.679688-70.847657-40.375-112.429688-35.777344-66.707031 7.394531-120.050781 61.265625-126.824219 128.105469-4.800781 47.390625 13.925781 94.007812 50.109375 124.6875 18.511719 15.703125 29.128906 37.753906 29.128906 60.480468v29.824219c0 4.421875 3.585938 8 8 8h8v40c0 4.421875 3.585938 8 8 8h8v64c0 17.648438 14.351563 32 32 32 17.648438 0 32-14.351562 32-32v-64h8c4.417969 0 8-3.578125 8-8v-40h8c4.417969 0 8-3.578125 8-8v-29.832031c0-22.808594 10.527344-44.777344 28.886719-60.273438 32.480469-27.414062 51.113281-67.472656 51.113281-109.894531 0-40.894531-17.488281-80.015625-47.984374-107.320312zm-112.015626 395.320312h32v16h-32zm16 48c-8.824218 0-16-7.175781-16-16h32c0 8.824219-7.175781 16-16 16zm16-64h-32v-16h32zm16-32h-64v-32h64zm50.566407-142.320312c-21.964844 18.535156-34.566407 44.96875-34.566407 72.488281v21.832031h-40v-64h24v-16h-24v-48.550781c31.519532-3.960938 56-30.875 56-63.449219 0-35.289062-28.710937-64-64-64-35.289062 0-64 28.710938-64 64 0 32.574219 24.480469 59.488281 56 63.449219v48.550781h-24v16h24v64h-40v-21.824219c0-27.449218-12.671874-53.9375-34.785156-72.6875-32.167968-27.273437-48.816406-68.722656-44.535156-110.871093 6.015625-59.378907 53.402344-107.242188 112.664062-113.800781 36.984376-4.128907 72.519532 7.183593 100 31.792968 27.113282 24.261719 42.65625 59.03125 42.65625 95.390625 0 37.695313-16.558593 73.296875-45.433593 97.679688zm-90.566407-50.398438c-22.664062-3.824219-40-23.539062-40-47.28125 0-26.472656 21.527344-48 48-48 26.472657 0 48 21.527344 48 48 0 23.734375-17.335937 43.449219-40 47.28125v-15.28125h-16zm0 0" fill="#004975" data-original="#000000"></path><path d="m248.007812 32.019531v16c52.9375 0 96 43.0625 96 96h16c0-61.761719-50.238281-112-112-112zm0 0" fill="#004975" data-original="#000000"></path></g></svg>