<svg xmlns="http://www.w3.org/2000/svg" version="1.1" xmlns:xlink="http://www.w3.org/1999/xlink" xmlns:svgjs="http://svgjs.com/svgjs" width="512" height="512" x="0" y="0" viewBox="0 0 682.66669 682.66669" style="enable-background:new 0 0 512 512" xml:space="preserve" class=""><g><defs id="defs3436"><clipPath clipPathUnits="userSpaceOnUse" id="clipPath3446"><path d="M 0,512 H 512 V 0 H 0 Z" id="path3444" fill="#004975" data-original="#004975"></path></clipPath></defs><g id="g3438" transform="matrix(1.3333333,0,0,-1.3333333,0,682.66667)"><g id="g3440"><g id="g3442" clip-path="url(#clipPath3446)"><g id="g3448" transform="translate(480.4517,416.3228)"><path d="m 0,0 h -448.903 c -13.282,0 -24.049,-10.767 -24.049,-24.048 v -272.549 c 0,-13.281 10.767,-24.049 24.049,-24.049 H 0 c 13.282,0 24.048,10.768 24.048,24.049 V -24.048 C 24.048,-10.767 13.282,0 0,0 Z" style="stroke:#004975;stroke-width:15;stroke-linecap:round;stroke-linejoin:round;stroke-miterlimit:10;stroke-dasharray:none;stroke-opacity:1" id="path3450" fill="none" stroke="#004975" stroke-width="15" stroke-linecap="round" stroke-linejoin="round" stroke-miterlimit="10" stroke-dasharray="none" stroke-opacity="" data-original="#004975" class=""></path></g><g id="g3452" transform="translate(167.8228,328.145)"><path d="m 0,0 c 0,-8.854 -7.178,-16.032 -16.032,-16.032 -8.855,0 -16.032,7.178 -16.032,16.032 0,8.854 7.177,16.032 16.032,16.032 C -7.178,16.032 0,8.854 0,0 Z" style="stroke:#004975;stroke-width:15;stroke-linecap:round;stroke-linejoin:round;stroke-miterlimit:10;stroke-dasharray:none;stroke-opacity:1" id="path3454" fill="none" stroke="#004975" stroke-width="15" stroke-linecap="round" stroke-linejoin="round" stroke-miterlimit="10" stroke-dasharray="none" stroke-opacity="" data-original="#004975" class=""></path></g><g id="g3456" transform="translate(79.645,247.9839)"><path d="m 0,0 12.001,30.002 c 2.435,6.087 8.33,10.079 14.886,10.079 h 51.382 c 6.073,0 11.624,-3.431 14.34,-8.863 l 7.17,-14.34 c 2.715,-5.431 8.267,-8.862 14.339,-8.862 h 22.156" style="stroke:#004975;stroke-width:15;stroke-linecap:round;stroke-linejoin:round;stroke-miterlimit:10;stroke-dasharray:none;stroke-opacity:1" id="path3458" fill="none" stroke="#004975" stroke-width="15" stroke-linecap="round" stroke-linejoin="round" stroke-miterlimit="10" stroke-dasharray="none" stroke-opacity="" data-original="#004975" class=""></path></g><g id="g3460" transform="translate(127.7417,288.0645)"><path d="m 0,0 -20.757,-62.272 c -2.18,-6.54 -3.291,-13.387 -3.291,-20.28 v -29.674 c 0,-4.427 -3.589,-8.016 -8.016,-8.016 h -48.097" style="stroke:#004975;stroke-width:15;stroke-linecap:round;stroke-linejoin:round;stroke-miterlimit:10;stroke-dasharray:none;stroke-opacity:1" id="path3462" fill="none" stroke="#004975" stroke-width="15" stroke-linecap="round" stroke-linejoin="round" stroke-miterlimit="10" stroke-dasharray="none" stroke-opacity="" data-original="#004975" class=""></path></g><g id="g3464" transform="translate(191.8711,135.7583)"><path d="m 0,0 -56.113,80.161 24.049,72.145" style="stroke:#004975;stroke-width:15;stroke-linecap:round;stroke-linejoin:round;stroke-miterlimit:10;stroke-dasharray:none;stroke-opacity:1" id="path3466" fill="none" stroke="#004975" stroke-width="15" stroke-linecap="round" stroke-linejoin="round" stroke-miterlimit="10" stroke-dasharray="none" stroke-opacity="" data-original="#004975" class=""></path></g><g id="g3468" transform="translate(135.7583,215.9194)"><path d="M 0,0 H -24.049" style="stroke:#004975;stroke-width:15;stroke-linecap:round;stroke-linejoin:round;stroke-miterlimit:10;stroke-dasharray:none;stroke-opacity:1" id="path3470" fill="none" stroke="#004975" stroke-width="15" stroke-linecap="round" stroke-linejoin="round" stroke-miterlimit="10" stroke-dasharray="none" stroke-opacity="" data-original="#004975" class=""></path></g><g id="g3472" transform="translate(47.5806,135.7583)"><path d="M 0,0 H 168.339 V 88.177" style="stroke:#004975;stroke-width:15;stroke-linecap:round;stroke-linejoin:round;stroke-miterlimit:10;stroke-dasharray:none;stroke-opacity:1" id="path3474" fill="none" stroke="#004975" stroke-width="15" stroke-linecap="round" stroke-linejoin="round" stroke-miterlimit="10" stroke-dasharray="none" stroke-opacity="" data-original="#004975" class=""></path></g><g id="g3476" transform="translate(215.9194,288.0659)"><path d="M 0,0 V 88.176 H -168.339 V -88.179" style="stroke:#004975;stroke-width:15;stroke-linecap:round;stroke-linejoin:round;stroke-miterlimit:10;stroke-dasharray:none;stroke-opacity:1" id="path3478" fill="none" stroke="#004975" stroke-width="15" stroke-linecap="round" stroke-linejoin="round" stroke-miterlimit="10" stroke-dasharray="none" stroke-opacity="" data-original="#004975" class=""></path></g><g id="g3480" transform="translate(401.665,272.0322)"><path d="m 0,0 h -121.617 c -8.853,0 -16.032,-7.179 -16.032,-16.032 0,-8.854 7.179,-16.032 16.032,-16.032 H 0 l -36.758,-36.762 c -6.263,-6.262 -6.263,-16.408 0,-22.671 3.127,-3.131 7.233,-4.696 11.335,-4.696 4.102,0 8.208,1.565 11.335,4.696 l 64.129,64.129 c 6.263,6.263 6.263,16.409 0,22.671 l -64.129,64.129 c -6.255,6.263 -16.415,6.263 -22.67,0 -6.263,-6.263 -6.263,-16.408 0,-22.67 l 4.693,-4.694" style="stroke:#004975;stroke-width:15;stroke-linecap:round;stroke-linejoin:round;stroke-miterlimit:10;stroke-dasharray:none;stroke-opacity:1" id="path3482" fill="none" stroke="#004975" stroke-width="15" stroke-linecap="round" stroke-linejoin="round" stroke-miterlimit="10" stroke-dasharray="none" stroke-opacity="" data-original="#004975" class=""></path></g></g></g></g></g></svg>