<svg xmlns="http://www.w3.org/2000/svg" version="1.1" xmlns:xlink="http://www.w3.org/1999/xlink" xmlns:svgjs="http://svgjs.com/svgjs" width="512" height="512" x="0" y="0" viewBox="0 0 512.013 512.013" style="enable-background:new 0 0 512 512" xml:space="preserve" class=""><g>
<g>
	<g>
		<g>
			<path d="M282.483,247.177c0-19.501-15.809-35.31-35.31-35.31c-19.501,0-35.31,15.809-35.31,35.31
				c0,19.501,15.809,35.31,35.31,35.31C266.674,282.487,282.483,266.678,282.483,247.177z M247.172,264.832
				c-9.751,0-17.655-7.904-17.655-17.655c0-9.751,7.905-17.655,17.655-17.655s17.655,7.905,17.655,17.655
				C264.828,256.928,256.923,264.832,247.172,264.832z" fill="#004975" data-original="#004975" class=""></path>
			<path d="M230.682,369.607c-32.26-4.257-61.508-21.152-81.311-46.972c-3.015-3.745-8.472-4.389-12.276-1.449
				c-3.804,2.94-4.555,8.384-1.69,12.245c22.64,29.507,56.073,48.813,92.946,53.672c4.77,0.528,9.087-2.852,9.721-7.609
				S235.424,370.346,230.682,369.607z" fill="#004975" data-original="#004975" class=""></path>
			<path d="M142.38,175.144c2.735,0.003,5.318-1.262,6.991-3.425c19.803-25.819,49.051-42.715,81.311-46.972
				c4.834-0.644,8.231-5.084,7.587-9.918s-5.084-8.231-9.918-7.587c-36.874,4.856-70.308,24.162-92.946,53.672
				c-2.06,2.662-2.427,6.264-0.945,9.287C135.942,173.224,139.014,175.141,142.38,175.144z" fill="#004975" data-original="#004975" class=""></path>
			<path d="M132.882,200.258c0.902-2.161,0.908-4.591,0.017-6.757c-0.891-2.165-2.605-3.888-4.766-4.789
				c-2.161-0.902-4.592-0.908-6.757-0.017c-2.165,0.891-3.888,2.605-4.79,4.766c-14.206,34.399-14.206,73.024,0,107.423
				c1.18,2.959,3.863,5.053,7.021,5.478s6.299-0.883,8.22-3.424c1.921-2.541,2.325-5.92,1.055-8.842
				C120.488,264.044,120.488,230.31,132.882,200.258z" fill="#004975" data-original="#004975" class=""></path>
			<path d="M231.124,334.005c-19.911-3.737-37.95-14.16-51.129-29.546c-3.169-3.705-8.742-4.14-12.447-0.971
				s-4.14,8.742-0.971,12.447c15.815,18.439,37.449,30.93,61.325,35.407c0.532,0.106,1.073,0.165,1.615,0.177
				c4.576,0.018,8.407-3.464,8.825-8.021S235.627,334.82,231.124,334.005z" fill="#004975" data-original="#004975" class=""></path>
			<path d="M227.902,143.011c-23.876,4.491-45.507,16.986-61.325,35.425c-2.05,2.397-2.665,5.705-1.615,8.679
				s3.608,5.161,6.709,5.738c3.101,0.577,6.274-0.544,8.324-2.941c13.184-15.384,31.225-25.808,51.138-29.546
				c4.792-0.893,7.954-5.501,7.062-10.293C237.302,145.281,232.694,142.12,227.902,143.011z" fill="#004975" data-original="#004975" class=""></path>
			<path d="M158.596,206.376c-2.205-0.787-4.633-0.665-6.749,0.338c-2.116,1.003-3.746,2.806-4.533,5.012
				c-8.098,22.941-8.098,47.962,0,70.903c1.254,3.515,4.583,5.862,8.316,5.862c1.01-0.003,2.013-0.176,2.966-0.512
				c4.589-1.641,6.98-6.692,5.341-11.282c-6.721-19.106-6.721-39.933,0-59.039C165.577,213.067,163.186,208.017,158.596,206.376z" fill="#004975" data-original="#004975" class=""></path>
			<path d="M202.357,283.535c-3.03,0.874-5.364,3.299-6.122,6.36s0.175,6.295,2.447,8.482c7.965,7.733,17.703,13.398,28.363,16.499
				c0.802,0.241,1.635,0.363,2.472,0.362c4.393,0,8.118-3.23,8.739-7.579c0.621-4.349-2.05-8.493-6.267-9.723
				c-7.917-2.315-15.147-6.531-21.063-12.279C208.654,283.469,205.388,282.66,202.357,283.535z" fill="#004975" data-original="#004975" class=""></path>
			<path d="M237.992,185.463c-1.37-4.68-6.275-7.364-10.955-5.994c-10.655,3.111-20.388,8.778-28.354,16.508
				c-2.591,2.497-3.407,6.317-2.062,9.655s4.581,5.525,8.179,5.529c2.284,0.002,4.48-0.88,6.126-2.463
				c5.915-5.753,13.15-9.969,21.071-12.279C236.678,195.048,239.362,190.144,237.992,185.463z" fill="#004975" data-original="#004975" class=""></path>
			<path d="M194.545,228.199c-1.242-1.985-3.221-3.395-5.503-3.921c-2.282-0.529-4.68-0.129-6.666,1.111s-3.399,3.219-3.927,5.501
				c-2.542,10.709-2.542,21.865,0,32.574c0.924,4,4.484,6.836,8.589,6.841c0.672-0.002,1.341-0.079,1.995-0.23
				c2.283-0.525,4.264-1.937,5.506-3.924c1.242-1.987,1.643-4.386,1.115-6.669c-0.952-4.033-1.438-8.162-1.448-12.306
				c0.02-4.147,0.508-8.278,1.457-12.315C196.189,232.581,195.787,230.184,194.545,228.199z" fill="#004975" data-original="#004975" class=""></path>
			<path d="M357.249,321.186c-3.804-2.94-9.261-2.297-12.276,1.449c-19.803,25.819-49.051,42.715-81.311,46.972
				c-3.181,0.352-5.923,2.398-7.165,5.348c-1.242,2.95-0.791,6.341,1.18,8.862c1.971,2.522,5.153,3.779,8.315,3.286
				c36.873-4.859,70.306-24.165,92.946-53.672C361.804,329.57,361.052,324.127,357.249,321.186z" fill="#004975" data-original="#004975" class=""></path>
			<path d="M265.993,107.242c-3.127-0.416-6.239,0.867-8.163,3.367c-1.924,2.5-2.368,5.836-1.165,8.753
				c1.203,2.916,3.87,4.969,6.997,5.385c32.26,4.257,61.508,21.153,81.311,46.972c2.984,3.856,8.529,4.564,12.385,1.58
				c3.856-2.984,4.564-8.529,1.58-12.385C336.301,131.404,302.867,112.098,265.993,107.242z" fill="#004975" data-original="#004975" class=""></path>
			<path d="M361.446,300.852c0.891,2.165,2.605,3.888,4.766,4.79c2.162,0.901,4.594,0.906,6.759,0.013
				c2.166-0.892,3.888-2.609,4.787-4.772c14.206-34.399,14.206-73.024,0-107.423c-1.877-4.5-7.047-6.626-11.547-4.749
				s-6.626,7.047-4.749,11.546c12.394,30.051,12.394,63.786,0,93.837C360.562,296.256,360.555,298.687,361.446,300.852z" fill="#004975" data-original="#004975" class=""></path>
			<path d="M256.15,344.28c0.767,4.191,4.417,7.236,8.677,7.239c0.545-0.002,1.088-0.052,1.624-0.15
				c23.876-4.484,45.506-16.981,61.316-35.425c2.05-2.397,2.665-5.705,1.615-8.679s-3.608-5.161-6.709-5.738
				c-3.101-0.577-6.274,0.544-8.324,2.941c-13.182,15.387-31.224,25.811-51.138,29.546
				C258.432,334.907,255.275,339.497,256.15,344.28z" fill="#004975" data-original="#004975" class=""></path>
			<path d="M266.443,143.011c-4.795-0.892-9.405,2.272-10.297,7.066c-0.892,4.795,2.272,9.405,7.067,10.297
				c19.908,3.729,37.948,14.139,51.138,29.511c2.05,2.397,5.223,3.518,8.324,2.941c3.101-0.577,5.658-2.764,6.709-5.738
				s0.435-6.282-1.615-8.679v-0.009C311.945,159.975,290.314,147.493,266.443,143.011z" fill="#004975" data-original="#004975" class=""></path>
			<path d="M335.748,287.978c0.953,0.336,1.956,0.509,2.966,0.512c3.732,0,7.062-2.346,8.316-5.862
				c8.098-22.941,8.098-47.962,0-70.903c-0.999-3.049-3.574-5.316-6.726-5.921c-3.151-0.604-6.382,0.549-8.439,3.012
				c-2.057,2.463-2.615,5.848-1.458,8.841c6.721,19.106,6.721,39.933,0,59.039C328.768,281.286,331.159,286.337,335.748,287.978z" fill="#004975" data-original="#004975" class=""></path>
			<path d="M264.828,315.238c0.837,0.001,1.67-0.121,2.472-0.362c10.66-3.101,20.398-8.765,28.363-16.499
				c3.513-3.381,3.619-8.969,0.238-12.482s-8.97-3.619-12.482-0.238c-5.915,5.748-13.146,9.964-21.063,12.279
				c-4.217,1.23-6.888,5.374-6.267,9.723C256.71,312.007,260.435,315.238,264.828,315.238z" fill="#004975" data-original="#004975" class=""></path>
			<path d="M262.347,196.427v-0.009c7.922,2.31,15.156,6.526,21.071,12.279c2.272,2.187,5.539,2.996,8.569,2.122
				c3.03-0.874,5.364-3.299,6.122-6.36c0.758-3.061-0.175-6.295-2.447-8.482c-7.967-7.726-17.7-13.39-28.354-16.499
				c-4.68-1.37-9.585,1.314-10.955,5.994C254.983,190.152,257.667,195.057,262.347,196.427z" fill="#004975" data-original="#004975" class=""></path>
			<path d="M299.8,266.155c1.242,1.985,3.221,3.395,5.503,3.921c0.654,0.15,1.324,0.227,1.995,0.23
				c4.106-0.006,7.665-2.841,8.589-6.841c2.542-10.709,2.542-21.865,0-32.574c-1.097-4.751-5.838-7.713-10.589-6.616
				c-4.751,1.097-7.713,5.838-6.616,10.589c0.948,4.037,1.437,8.168,1.457,12.315c-0.012,4.147-0.501,8.279-1.457,12.314
				C298.156,261.773,298.558,264.17,299.8,266.155z" fill="#004975" data-original="#004975" class=""></path>
			<path d="M432.552,273.66c14.626,0,26.483-11.857,26.483-26.483c0-14.626-11.857-26.483-26.483-26.483
				c-14.626,0-26.483,11.857-26.483,26.483C406.069,261.803,417.926,273.66,432.552,273.66z M432.552,238.349
				c4.875,0,8.828,3.952,8.828,8.828c0,4.875-3.952,8.828-8.828,8.828c-4.875,0-8.828-3.952-8.828-8.828
				C423.724,242.301,427.676,238.349,432.552,238.349z" fill="#004975" data-original="#004975" class=""></path>
			<path d="M471.905,349.85c14.85-32.188,22.508-67.225,22.44-102.674c0-136.51-110.663-247.172-247.172-247.172
				S0,110.667,0,247.177s110.663,247.172,247.172,247.172c35.452,0.067,70.493-7.594,102.682-22.449
				c19.601,30.125,55.519,45.346,90.798,38.478c35.278-6.868,62.863-34.452,69.731-69.731
				C517.252,405.37,502.03,369.452,471.905,349.85z M341.725,456.223c-29.677,13.547-61.929,20.53-94.552,20.471
				c-126.759,0-229.517-102.758-229.517-229.517S120.414,17.66,247.172,17.66S476.69,120.418,476.69,247.177
				c0.065,32.621-6.918,64.871-20.471,94.543c-32.714-13.052-70.058-5.368-94.963,19.538S328.67,423.51,341.725,456.223z
				 M492.203,440.66c-7.78,31.504-36.028,53.652-68.479,53.69c-29.369,0.034-55.694-18.112-66.111-45.572
				c-10.417-27.46-2.752-58.501,19.251-77.955s53.748-23.26,79.726-9.558C485.292,376.404,499.983,409.156,492.203,440.66z" fill="#004975" data-original="#004975" class=""></path>
			<path d="M423.724,370.763c-4.875,0-8.828,3.952-8.828,8.828v52.966c0,4.875,3.952,8.828,8.828,8.828
				c4.875,0,8.828-3.952,8.828-8.828v-52.966C432.552,374.715,428.599,370.763,423.724,370.763z" fill="#004975" data-original="#004975" class=""></path>
			<path d="M423.724,450.211c-4.875,0-8.828,3.952-8.828,8.828v8.828c0,4.875,3.952,8.828,8.828,8.828
				c4.875,0,8.828-3.952,8.828-8.828v-8.828C432.552,454.164,428.599,450.211,423.724,450.211z" fill="#004975" data-original="#004975" class=""></path>
		</g>
	</g>
</g>
<g>
</g>
<g>
</g>
<g>
</g>
<g>
</g>
<g>
</g>
<g>
</g>
<g>
</g>
<g>
</g>
<g>
</g>
<g>
</g>
<g>
</g>
<g>
</g>
<g>
</g>
<g>
</g>
<g>
</g>
</g></svg>