<svg xmlns="http://www.w3.org/2000/svg" version="1.1" xmlns:xlink="http://www.w3.org/1999/xlink" xmlns:svgjs="http://svgjs.com/svgjs" width="512" height="512" x="0" y="0" viewBox="0 0 64 64" style="enable-background:new 0 0 512 512" xml:space="preserve" class=""><g><path d="m7 2h50v60h-50z" fill="#aa2b24" data-original="#aa2b24" class=""></path><path d="m11 6h42v52h-42z" fill="#d24034" data-original="#d24034" class=""></path><path d="m11 28h42v30h-42z" fill="#cccccc" data-original="#cccccc"></path><path d="m11 28v26h34a4 4 0 0 0 4-4v-22z" fill="#f2f2f2" data-original="#f2f2f2" class=""></path><rect fill="#ffffff" height="17" rx="4" width="27" x="17" y="32" data-original="#ffffff" class=""></rect><circle cx="32" cy="43" fill="#aa2b24" r="7" data-original="#aa2b24" class=""></circle><circle cx="32" cy="43" fill="#d24034" r="3" data-original="#d24034" class=""></circle><path d="m49 38-7 5 7 5-1-5z" fill="#f3a845" data-original="#f3a845"></path><path d="m15 38 7 5-7 5 1-5z" fill="#f3a845" data-original="#f3a845"></path><path d="m47 41v-1.571l-5 3.571 1.4 1h.6a3 3 0 0 0 3-3z" fill="#eecc61" data-original="#eecc61"></path><path d="m16 44a3 3 0 0 0 3-3v-.143l-4-2.857 1 5-.2 1z" fill="#eecc61" data-original="#eecc61"></path><path d="m57 1h-50a1 1 0 0 0 -1 1v60a1 1 0 0 0 1 1h50a1 1 0 0 0 1-1v-60a1 1 0 0 0 -1-1zm-1 60h-48v-58h48z" fill="#000000" data-original="#000000" class=""></path><path d="m11 59h42a1 1 0 0 0 1-1v-52a1 1 0 0 0 -1-1h-42a1 1 0 0 0 -1 1v52a1 1 0 0 0 1 1zm1-2v-28h40v28zm40-50v20h-40v-20z" fill="#000000" data-original="#000000" class=""></path><path d="m20 19h4v-2h-4v-4h4v-2h-5a1 1 0 0 0 -1 1v11h2z" fill="#000000" data-original="#000000" class=""></path><path d="m41 23h5v-2h-4v-3h4v-2h-4v-3h4v-2h-5a1 1 0 0 0 -1 1v10a1 1 0 0 0 1 1z" fill="#000000" data-original="#000000" class=""></path><path d="m26 11h2v12h-2z" fill="#000000" data-original="#000000" class=""></path><path d="m32 19a4 4 0 0 1 4 4h2a5.981 5.981 0 0 0 -2.067-4.52 3.986 3.986 0 0 0 -1.933-7.48h-3a1 1 0 0 0 -1 1v11h2zm0-6h2a2 2 0 0 1 0 4h-2z" fill="#000000" data-original="#000000" class=""></path><path d="m48 9h2v2h-2z" fill="#000000" data-original="#000000" class=""></path><path d="m14 9h2v2h-2z" fill="#000000" data-original="#000000" class=""></path><path d="m48 53h2v2h-2z" fill="#000000" data-original="#000000" class=""></path><path d="m14 53h2v2h-2z" fill="#000000" data-original="#000000" class=""></path><path d="m32 35a8 8 0 1 0 8 8 8.009 8.009 0 0 0 -8-8zm0 14a6 6 0 1 1 6-6 6.006 6.006 0 0 1 -6 6z" fill="#000000" data-original="#000000" class=""></path><path d="m32 39a4 4 0 1 0 4 4 4 4 0 0 0 -4-4zm0 6a2 2 0 1 1 2-2 2 2 0 0 1 -2 2z" fill="#000000" data-original="#000000" class=""></path><path d="m49 49a1 1 0 0 0 .98-1.2l-.96-4.8.96-4.8a1 1 0 0 0 -1.561-1.01l-7 5a1 1 0 0 0 0 1.628l7 5a1 1 0 0 0 .581.182zm-1.477-3.284-3.802-2.716 3.8-2.716-.5 2.52a1 1 0 0 0 0 .392z" fill="#000000" data-original="#000000" class=""></path><path d="m22.581 42.186-7-5a1 1 0 0 0 -1.561 1.014l.96 4.8-.96 4.8a1 1 0 0 0 1.561 1.01l7-5a1 1 0 0 0 0-1.628zm-6.1 3.53.5-2.52a1 1 0 0 0 0-.392l-.5-2.52 3.798 2.716z" fill="#000000" data-original="#000000" class=""></path></g></svg>