<svg xmlns="http://www.w3.org/2000/svg" version="1.1" xmlns:xlink="http://www.w3.org/1999/xlink" xmlns:svgjs="http://svgjs.com/svgjs" width="512" height="512" x="0" y="0" viewBox="0 0 48 48" style="enable-background:new 0 0 512 512" xml:space="preserve" class=""><g><g fill-rule="evenodd"><path d="m42.814 32.013c0 12.775-12.029 15-13.439 15.217-.061.01-.117.017-.131.019h-.007l-10.1-.006h-.054-.012l-.1-.006h-.037-.012-.062c-.39-.029-1.171-.1-2.17-.274-3.77-.663-10.65-2.719-11.399-9.099-.628-5.341 1.654-8.007 4.52-11.57 2.31-2.873.5-7.124.486-7.165.06.033 3.893 2.141 4.809 3.944a13.622 13.622 0 0 1 1.119 2.693c-.018-.148-.821-6.763 2.6-11.211 3.459-4.495 4.185-5.878 4.25-8.179a15.386 15.386 0 0 0 -1.506-5.626 26.883 26.883 0 0 1 8.3 8.3 17.305 17.305 0 0 1 2.658 8.741 9.062 9.062 0 0 0 2.055-3.135 10.439 10.439 0 0 0 .222-4.141l2.114 3.6c2.372 4.346 5.896 11.816 5.896 17.898z" fill="#d75c1e" data-original="#d75c1e"></path><path d="m42.814 32.013c0-6.082-3.524-13.552-5.9-17.893l-2.114-3.6a10.439 10.439 0 0 1 -.222 4.141 9.043 9.043 0 0 1 -2.056 3.135 17.3 17.3 0 0 0 -2.657-8.741 31.218 31.218 0 0 0 -2.865-3.695c-.218 1.894-1.14 3.435-4.2 7.411-3.422 4.447-2.619 11.062-2.6 11.21a13.7 13.7 0 0 0 -1.119-2.693 8.056 8.056 0 0 0 -2.337-2.357 19.851 19.851 0 0 0 -.522 6.835 13.622 13.622 0 0 0 -1.119-2.693 3.334 3.334 0 0 0 -.345-.533 5.147 5.147 0 0 1 -.972 1.969c-2.865 3.563-5.148 6.23-4.52 11.57.749 6.38 7.628 8.436 11.4 9.087a21.284 21.284 0 0 0 2.444.292l10.108.006h.006l.128-.019a17.009 17.009 0 0 0 2.469-.6c3.462-2.086 6.993-5.91 6.993-12.832z" fill="#ff6600" data-original="#ff6600" class=""></path><path d="m33.248 39.753c-.008 5.91-3.5 7.341-3.873 7.477-.061.01-.117.017-.131.019h-.007l-10.1-.006h-.054-.012l-.1-.006h-.037-.012-.062a4 4 0 0 1 -3.223-2.164 12.446 12.446 0 0 1 -.54-1.2 5.786 5.786 0 0 1 -.31-1.231c-.369-2.62 1.227-5.119 2.347-6.4 2.667-2.866 4.841-4.414 5.533-7.642a14.96 14.96 0 0 0 .128-4.215 13.208 13.208 0 0 1 4.084 4.085 8.513 8.513 0 0 1 1.308 4.3 4.46 4.46 0 0 0 1.013-1.555 5.138 5.138 0 0 0 .109-2.037s3.945 6.064 3.939 10.575z" fill="#ff8300" data-original="#ff8300"></path><path d="m29.306 29.178a5.138 5.138 0 0 1 -.109 2.037 4.46 4.46 0 0 1 -1.011 1.542 8.524 8.524 0 0 0 -1.308-4.3c-.164-.247-.33-.482-.5-.705-.885 2.612-2.88 4.123-5.272 6.692-1.119 1.284-2.715 3.783-2.346 6.4.009.064.03.166.063.3a5.7 5.7 0 0 0 5.44 4.268l2.264.046h.916a5.75 5.75 0 0 0 5.8-5.624v-.084c.011-4.508-3.937-10.572-3.937-10.572z" fill="#ffa511" data-original="#ffa511"></path></g><path d="m37.562 13.74-2.114-3.6a.75.75 0 0 0 -1.387.5 9.678 9.678 0 0 1 -.192 3.787 6.331 6.331 0 0 1 -.743 1.461 17.6 17.6 0 0 0 -2.634-7.248 27.415 27.415 0 0 0 -8.562-8.547.756.756 0 0 0 -.878.113.747.747 0 0 0 -.16.87 14.726 14.726 0 0 1 1.434 5.279c-.059 2.091-.748 3.394-4.095 7.744a15.264 15.264 0 0 0 -2.792 8.1c-1.309-1.791-4.4-3.516-4.782-3.725a.751.751 0 0 0 -1.05.953c.017.039 1.625 3.907-.379 6.4l-.228.28c-2.737 3.4-5.1 6.334-4.453 11.845 1.1 9.366 14.008 10.017 14.557 10.041a.75.75 0 0 0 .063-1.5c-.122-.005-12.18-.62-13.13-8.717-.574-4.885 1.4-7.337 4.132-10.729l.228-.283a7.256 7.256 0 0 0 1.158-5.987 9.409 9.409 0 0 1 2.883 2.635 13.336 13.336 0 0 1 1.057 2.52.75.75 0 0 0 1.476-.259c-.008-.064-.775-6.468 2.451-10.66 3.4-4.419 4.33-5.989 4.405-8.616a11.351 11.351 0 0 0 -.65-3.612 28.967 28.967 0 0 1 6.066 6.682 16.7 16.7 0 0 1 2.532 8.32.751.751 0 0 0 1.27.547 9.76 9.76 0 0 0 2.246-3.434 7.237 7.237 0 0 0 .316-1.526l.651 1.109c2.169 3.963 5.806 11.517 5.806 17.531 0 8.783-5.9 12.313-9.726 13.68a9.928 9.928 0 0 0 1.662-5.939c.007-4.681-3.9-10.731-4.063-10.986a.751.751 0 0 0 -1.371.525 5.051 5.051 0 0 1 .025 1.169 8.522 8.522 0 0 0 -1.086-2.42 13.888 13.888 0 0 0 -4.346-4.328.75.75 0 0 0 -1.106.748 14.332 14.332 0 0 1 -.118 3.968c-.5 2.353-1.872 3.736-3.766 5.652-.5.506-1.031 1.043-1.6 1.654-.709.812-2.985 3.719-2.523 7a6.482 6.482 0 0 0 .35 1.389.75.75 0 1 0 1.4-.527 5.13 5.13 0 0 1 -.269-1.072c-.373-2.651 1.566-5.114 2.153-5.787.541-.581 1.06-1.107 1.551-1.6 2-2.017 3.571-3.61 4.166-6.392a13.15 13.15 0 0 0 .239-2.835 14.075 14.075 0 0 1 2.615 2.962 7.819 7.819 0 0 1 1.183 3.88.75.75 0 0 0 1.269.547 5.238 5.238 0 0 0 1.146-1.688c1.124 2.1 2.651 5.453 2.647 8.142-.008 5.568-3.345 6.736-3.48 6.781a.75.75 0 0 0 .224 1.463c.031 0 .062 0 .093-.005.142-.018 14.231-1.911 14.231-15.981 0-6.032-3.257-13.256-6.002-18.274z" fill="#000000" data-original="#000000" class=""></path></g></svg>