<svg xmlns="http://www.w3.org/2000/svg" version="1.1" xmlns:xlink="http://www.w3.org/1999/xlink" xmlns:svgjs="http://svgjs.com/svgjs" width="512" height="512" x="0" y="0" viewBox="0 0 48 48" style="enable-background:new 0 0 512 512" xml:space="preserve" class=""><g><path d="M29.241,48a.75.75,0,0,1-.231-1.464c.131-.045,3.36-1.218,3.488-6.8.068-2.962-1.47-6.225-2.61-8.224A5.164,5.164,0,0,1,28.705,33.3a.75.75,0,0,1-1.269-.546,7.829,7.829,0,0,0-1.183-3.881,14.056,14.056,0,0,0-2.615-2.966,13.133,13.133,0,0,1-.239,2.839c-.593,2.77-1.911,4.1-3.734,5.937-.468.471-.978.986-1.529,1.577a9.531,9.531,0,0,0-.783.9.75.75,0,0,1-1.192-.91,10.735,10.735,0,0,1,.892-1.023c.548-.589,1.069-1.115,1.547-1.6,1.765-1.78,2.831-2.854,3.333-5.194a14.27,14.27,0,0,0,.117-3.968.75.75,0,0,1,1.107-.747A13.883,13.883,0,0,1,27.5,28.044a8.514,8.514,0,0,1,1.086,2.421,5.14,5.14,0,0,0-.024-1.171.75.75,0,0,1,1.349-.556c.171.237,4.2,5.865,4.084,11.033a10.337,10.337,0,0,1-1.741,5.952c3.827-1.346,9.807-4.865,9.807-13.709,0-6.015-3.638-13.568-5.806-17.535l-.651-1.108a7.3,7.3,0,0,1-.316,1.526,9.73,9.73,0,0,1-2.248,3.438.75.75,0,0,1-1.269-.547,16.677,16.677,0,0,0-2.532-8.32q-.29-.435-.581-.846a.75.75,0,1,1,1.222-.869c.2.287.408.583.609.887a17.592,17.592,0,0,1,2.634,7.242,6.3,6.3,0,0,0,.742-1.46,9.671,9.671,0,0,0,.193-3.788.75.75,0,0,1,1.388-.5l2.114,3.6c2.744,5.019,6,12.243,6,18.274,0,14.071-14.089,15.963-14.231,15.98A.722.722,0,0,1,29.241,48Z" fill="#004975" data-original="#000000" class=""></path><path d="M19.134,48H19.1c-.549-.023-13.455-.682-14.556-10.047C3.9,32.44,6.262,29.506,9,26.107l.228-.282c2-2.494.4-6.362.38-6.4a.75.75,0,0,1,1.05-.953A17.417,17.417,0,0,1,15.439,22.2a15.268,15.268,0,0,1,2.793-8.1c3.346-4.351,4.035-5.654,4.1-7.745a14.741,14.741,0,0,0-1.434-5.279.75.75,0,0,1,1.015-1,22.043,22.043,0,0,1,6.57,5.675.75.75,0,1,1-1.177.93A22.117,22.117,0,0,0,23.132,2.65,11.6,11.6,0,0,1,23.826,6.4c-.075,2.626-1.006,4.2-4.406,8.616-3.225,4.192-2.459,10.6-2.45,10.66a.75.75,0,0,1-1.476.26,13.309,13.309,0,0,0-1.057-2.522,9.408,9.408,0,0,0-2.883-2.634A7.256,7.256,0,0,1,10.4,26.765l-.229.283C7.436,30.44,5.461,32.891,6.036,37.776c.661,5.631,6.693,7.647,10.348,8.354a8.524,8.524,0,0,1-1.849-4.157,7.951,7.951,0,0,1,.143-2.651.75.75,0,0,1,1.462.338,6.453,6.453,0,0,0-.114,2.152c.164,1.517,1.452,4.074,3.352,4.729A.75.75,0,0,1,19.134,48Z" fill="#004975" data-original="#000000" class=""></path></g></svg>