<svg xmlns="http://www.w3.org/2000/svg" version="1.1" xmlns:xlink="http://www.w3.org/1999/xlink" xmlns:svgjs="http://svgjs.com/svgjs" width="512" height="512" x="0" y="0" viewBox="0 0 512 512" style="enable-background:new 0 0 512 512" xml:space="preserve" class=""><g><g id="Layer_1" data-name="Layer 1"><path d="m403.29 239.727a147.322 147.322 0 0 1 -98.674 139.039h-97.232a147.292 147.292 0 1 1 195.906-139.039z" fill="#f9e0a6" data-original="#f9e0a6" class=""></path><path d="m403.29 239.727a147.322 147.322 0 0 1 -98.674 139.039h-48.616v-286.329a147.29 147.29 0 0 1 147.29 147.29z" fill="#eabd8c" data-original="#eabd8c" class=""></path><path d="m200.212 155.3h48.038a1.762 1.762 0 0 1 1.661 2.351l-26.542 74.907a2.409 2.409 0 0 0 2.27 3.214h21.233a1.762 1.762 0 0 1 1.328 2.919l-66.809 89.109a1.762 1.762 0 0 1 -2.973-1.79l23.882-70.11a1.762 1.762 0 0 0 -1.644-2.4h-17.586a4.2 4.2 0 0 1 -4.113-5.08l19.532-91.738a1.762 1.762 0 0 1 1.723-1.382z" fill="#ffd400" data-original="#ffd400" class=""></path><path d="m283.908 155.3h48.038a1.763 1.763 0 0 1 1.661 2.351l-26.543 74.907a2.41 2.41 0 0 0 2.271 3.214h21.233a1.762 1.762 0 0 1 1.328 2.919l-66.809 89.109a1.762 1.762 0 0 1 -2.973-1.79l23.886-70.11a1.762 1.762 0 0 0 -1.644-2.4h-17.59a4.2 4.2 0 0 1 -4.113-5.08l19.531-91.738a1.764 1.764 0 0 1 1.724-1.382z" fill="#fdbf00" data-original="#fdbf00" class=""></path><path d="m294.684 476.134h-77.368a10 10 0 0 1 -10-10v-87.368h97.368v87.368a10 10 0 0 1 -10 10z" fill="#3aaaff" data-original="#3aaaff" class=""></path><path d="m304.684 378.766v87.368a10 10 0 0 1 -10 10h-38.684v-97.368z" fill="#008adf" data-original="#008adf" class=""></path><path d="m274.868 497.349h-37.738a10 10 0 0 1 -10-10v-11.215h57.738v11.215a10 10 0 0 1 -10 10z" fill="#ececec" data-original="#ececec"></path><path d="m284.868 476.134v11.215a10 10 0 0 1 -10 10h-18.868v-21.215z" fill="#b6c1ce" data-original="#b6c1ce"></path><path d="m250.55 241.063a4.762 4.762 0 0 0 -3.677-7.787h-20.4l26.263-74.12a4.761 4.761 0 0 0 -4.489-6.351h-48.035a4.786 4.786 0 0 0 -4.657 3.769l-19.531 91.739a7.2 7.2 0 0 0 7.046 8.7h15.855l-23.331 68.493a4.7 4.7 0 0 0 2.012 5.722 4.806 4.806 0 0 0 2.48.7 4.719 4.719 0 0 0 3.567-1.651c.048-.055.095-.113.139-.172zm-45.424 16.359a4.761 4.761 0 0 0 -4.47-6.4h-17.586a1.2 1.2 0 0 1 -1.178-1.455l19.323-90.758h45.285l-25.956 73.256a5.408 5.408 0 0 0 5.1 7.215h18.751l-60.635 80.88zm56.174 73.811a4.789 4.789 0 0 0 2.48.7 4.716 4.716 0 0 0 3.566-1.652c.048-.054.1-.112.139-.171l66.759-89.048a4.763 4.763 0 0 0 -3.679-7.787h-20.4l26.263-74.119a4.761 4.761 0 0 0 -4.489-6.352h-48.031a4.785 4.785 0 0 0 -4.657 3.769l-19.531 91.74a7.2 7.2 0 0 0 7.046 8.7h15.855l-23.331 68.498a4.7 4.7 0 0 0 2.01 5.722zm27.519-73.812a4.761 4.761 0 0 0 -4.47-6.4h-17.583a1.2 1.2 0 0 1 -1.178-1.455l19.323-90.758h45.283l-25.957 73.256a5.408 5.408 0 0 0 5.1 7.215h18.751l-60.634 80.879zm-35.819-196.244v-47.034a3 3 0 0 1 6 0v47.034a3 3 0 1 1 -6 0zm-86.425-28.619a3 3 0 0 1 5.542-2.3l18.027 43.442a3 3 0 1 1 -5.544 2.3zm-72.767 50.132a3 3 0 1 1 4.237-4.248l33.3 33.216a3 3 0 1 1 -4.237 4.248zm-49.628 70.279a3 3 0 0 1 3.917-1.631l43.487 17.916a3 3 0 1 1 -2.284 5.546l-43.488-17.915a3 3 0 0 1 -1.632-3.916zm32.77 90.72-47.033.121h-.008a3 3 0 0 1 -.008-6l47.034-.121h.007a3 3 0 0 1 .008 6zm15 68.361-43.4 18.138a3 3 0 0 1 -2.314-5.536l43.4-18.137a3 3 0 1 1 2.314 5.535zm40.033 53.15a3 3 0 0 1 .017 4.242l-33.132 33.386a3 3 0 0 1 -4.259-4.226l33.132-33.385a3 3 0 0 1 4.242-.017zm189.935-291.475 18.042-43.436a3 3 0 1 1 5.541 2.3l-18.042 43.436a3 3 0 1 1 -5.541-2.3zm58.823 42.267a3 3 0 0 1 .009-4.243l33.324-33.191a3 3 0 0 1 4.235 4.252l-33.325 33.19a3 3 0 0 1 -4.243-.009zm39.753 53.442 43.506-17.87a3 3 0 0 1 2.28 5.551l-43.508 17.869a3 3 0 0 1 -2.279-5.55zm64.6 71.716a3 3 0 0 1 -3 2.989h-.012l-47.034-.188a3 3 0 0 1 .011-6h.012l47.035.188a3 3 0 0 1 2.985 3.011zm-17.877 87.812a3 3 0 0 1 -2.768 1.839 2.964 2.964 0 0 1 -1.16-.236l-43.366-18.215a3 3 0 0 1 2.324-5.532l43.363 18.216a3 3 0 0 1 1.604 3.928zm-50.17 69.992a3 3 0 1 1 -4.267 4.217l-33.058-33.457a3 3 0 0 1 4.268-4.217zm-10.756-158.719c0-82.87-67.42-150.29-150.291-150.29s-150.29 67.42-150.29 150.29a150.456 150.456 0 0 0 98.606 141.122v85.286a13.015 13.015 0 0 0 13 13h6.815v8.214a13.014 13.014 0 0 0 13 13h37.738a13.014 13.014 0 0 0 13-13v-8.214h6.816a13.015 13.015 0 0 0 13-13v-85.286a150.456 150.456 0 0 0 98.606-141.122zm-104.606 186.5-91.369 20.287v-13.137l91.369-20.285zm0-19.285-91.369 20.288v-13.138l91.369-20.287zm0-19.284-91.369 20.288v-26.181h91.369zm-91.369 78.141v-13.138l91.369-20.288v13.139zm-98.606-226.072c0-79.561 64.728-144.29 144.29-144.29s144.291 64.729 144.291 144.29a144.445 144.445 0 0 1 -96.2 136.038h-96.184a144.445 144.445 0 0 1 -96.197-136.038zm170.159 247.622a7.008 7.008 0 0 1 -7 7h-37.738a7.008 7.008 0 0 1 -7-7v-8.214h51.738zm12.816-14.214h-77.369a6.959 6.959 0 0 1 -4.587-1.726l88.956-19.751v14.477a7.009 7.009 0 0 1 -7 7z" fill="#000000" data-original="#000000" class=""></path></g></g></svg>