<svg xmlns="http://www.w3.org/2000/svg" version="1.1" xmlns:xlink="http://www.w3.org/1999/xlink" xmlns:svgjs="http://svgjs.com/svgjs" width="512" height="512" x="0" y="0" viewBox="0 0 682.66669 682.66669" style="enable-background:new 0 0 512 512" xml:space="preserve" class=""><g><defs id="defs9457"><clipPath clipPathUnits="userSpaceOnUse" id="clipPath9467"><path d="M 0,512 H 512 V 0 H 0 Z" id="path9465" fill="#000000" data-original="#000000"></path></clipPath></defs><g id="g9459" transform="matrix(1.3333333,0,0,-1.3333333,0,682.66667)"><g id="g9461"><g id="g9463" clip-path="url(#clipPath9467)"><g id="g9469" transform="translate(488.3192,256)"><path d="m 0,0 c 0,-128.306 -104.013,-232.319 -232.319,-232.319 -128.306,0 -232.319,104.013 -232.319,232.319 0,128.306 104.013,232.319 232.319,232.319 C -104.013,232.319 0,128.306 0,0" style="fill-opacity:1;fill-rule:nonzero;stroke:none" id="path9471" fill="#d8ecfe" data-original="#d8ecfe" class=""></path></g><g id="g9473" transform="translate(256,89.6807)"><path d="m 0,0 c -91.709,0 -166.319,74.61 -166.319,166.319 0,91.709 74.61,166.32 166.319,166.32 91.709,0 166.319,-74.611 166.319,-166.32 C 166.319,74.61 91.709,0 0,0" style="fill-opacity:1;fill-rule:nonzero;stroke:none" id="path9475" fill="#6ed5a1" data-original="#6ed5a1"></path></g><g id="g9477" transform="translate(61.6808,256)"><path d="m 0,0 c 0,121.908 93.901,221.874 213.319,231.542 -6.267,0.507 -12.602,0.777 -19,0.777 C 66.013,232.319 -38,128.306 -38,0 c 0,-128.306 104.013,-232.319 232.319,-232.319 6.398,0 12.733,0.27 19,0.777 C 93.901,-221.874 0,-121.908 0,0" style="fill-opacity:1;fill-rule:nonzero;stroke:none" id="path9479" fill="#c4e2ff" data-original="#c4e2ff"></path></g><g id="g9481" transform="translate(124.6807,256)"><path d="m 0,0 c 0,85.799 65.306,156.626 148.819,165.4 -5.752,0.604 -11.59,0.919 -17.5,0.919 C 39.61,166.319 -35,91.709 -35,0 c 0,-91.709 74.61,-166.319 166.319,-166.319 5.91,0 11.748,0.315 17.5,0.919 C 65.306,-156.626 0,-85.799 0,0" style="fill-opacity:1;fill-rule:nonzero;stroke:none" id="path9483" fill="#46cc8d" data-original="#46cc8d" class=""></path></g><g id="g9485" transform="translate(504.5,309.1699)"><path d="m 0,0 v -106.34 c 0,-8.84 -7.16,-16 -16,-16 h -465 c -8.84,0 -16,7.16 -16,16 V 0 c 0,8.84 7.16,16 16,16 H -16 C -7.16,16 0,8.84 0,0" style="fill-opacity:1;fill-rule:nonzero;stroke:none" id="path9487" fill="#91deb6" data-original="#91deb6" class=""></path></g><g id="g9489" transform="translate(32.5,202.8301)"><path d="m 0,0 v 106.34 c 0,8.84 7.16,16 16,16 H -9 c -8.84,0 -16,-7.16 -16,-16 V 0 c 0,-8.84 7.16,-16 16,-16 H 16 C 7.16,-16 0,-8.84 0,0" style="fill-opacity:1;fill-rule:nonzero;stroke:none" id="path9491" fill="#6ed5a1" data-original="#6ed5a1"></path></g><g id="g9493" transform="translate(316.0843,360.0634)"><path d="m 0,0 v 0 c -3.177,-5.5 -10.007,-7.817 -15.8,-5.212 -13.527,6.084 -28.518,9.469 -44.284,9.469 -15.766,0 -30.758,-3.385 -44.284,-9.469 -5.793,-2.605 -12.623,-0.288 -15.801,5.212 v 0 c -3.685,6.38 -1.102,14.597 5.618,17.618 16.639,7.48 35.077,11.639 54.467,11.639 19.39,0 37.828,-4.159 54.467,-11.639 C 1.103,14.597 3.685,6.38 0,0" style="fill-opacity:1;fill-rule:nonzero;stroke:none" id="path9495" fill="#c4e2ff" data-original="#c4e2ff"></path></g><g id="g9497" transform="translate(316.0843,151.9366)"><path d="m 0,0 v 0 c 3.685,-6.38 1.103,-14.597 -5.617,-17.618 -16.639,-7.48 -35.077,-11.639 -54.467,-11.639 -19.39,0 -37.828,4.159 -54.467,11.639 -6.72,3.021 -9.303,11.238 -5.618,17.618 v 0 c 3.178,5.5 10.008,7.817 15.801,5.212 13.526,-6.084 28.518,-9.469 44.284,-9.469 15.766,0 30.757,3.385 44.284,9.469 C -10.007,7.817 -3.177,5.5 0,0" style="fill-opacity:1;fill-rule:nonzero;stroke:none" id="path9499" fill="#c4e2ff" data-original="#c4e2ff"></path></g><g id="g9501" transform="translate(34.15,186.83)"><path d="m 0,0 c 29.44,-94.53 117.63,-163.15 221.85,-163.15 104.22,0 192.41,68.62 221.85,163.15" style="stroke:#000000;stroke-width:15;stroke-linecap:round;stroke-linejoin:round;stroke-miterlimit:10;stroke-dasharray:none;stroke-opacity:1" id="path9503" fill="none" stroke="#000000" stroke-width="15" stroke-linecap="round" stroke-linejoin="round" stroke-miterlimit="10" stroke-dasharray="none" stroke-opacity="" data-original="#000000" class=""></path></g><g id="g9505" transform="translate(34.15,325.17)"><path d="M 0,0 C 29.44,94.53 117.63,163.15 221.85,163.15 326.07,163.15 414.26,94.53 443.7,0" style="stroke:#000000;stroke-width:15;stroke-linecap:round;stroke-linejoin:round;stroke-miterlimit:10;stroke-dasharray:none;stroke-opacity:1" id="path9507" fill="none" stroke="#000000" stroke-width="15" stroke-linecap="round" stroke-linejoin="round" stroke-miterlimit="10" stroke-dasharray="none" stroke-opacity="" data-original="#000000" class=""></path></g><g id="g9509" transform="translate(69.05,325.1699)"><path d="M 0,0 C 0.058,0.157 0.116,0.313 0.175,0.469" style="stroke:#000000;stroke-width:15;stroke-linecap:round;stroke-linejoin:round;stroke-miterlimit:4;stroke-dasharray:none;stroke-opacity:1" id="path9511" fill="none" stroke="#000000" stroke-width="15" stroke-linecap="round" stroke-linejoin="round" stroke-miterlimit="4" stroke-dasharray="none" stroke-opacity="" data-original="#000000" class=""></path></g><g id="g9513" transform="translate(81.4895,352.2446)"><path d="m 0,0 c 34.005,61.407 99.483,103.075 174.51,103.075 80.245,0 149.567,-47.665 181.141,-116.165" style="stroke:#000000;stroke-width:15;stroke-linecap:round;stroke-linejoin:round;stroke-miterlimit:4;stroke-dasharray:0.977, 29.322;stroke-dashoffset:0;stroke-opacity:1" id="path9515" fill="none" stroke="#000000" stroke-width="15" stroke-linecap="round" stroke-linejoin="round" stroke-miterlimit="4" stroke-dasharray="0.977, 29.322" stroke-dashoffset="0" stroke-opacity="" data-original="#000000" class=""></path></g><g id="g9517" transform="translate(442.775,325.6394)"><path d="M 0,0 C 0.059,-0.156 0.117,-0.313 0.175,-0.469" style="stroke:#000000;stroke-width:15;stroke-linecap:round;stroke-linejoin:round;stroke-miterlimit:4;stroke-dasharray:none;stroke-opacity:1" id="path9519" fill="none" stroke="#000000" stroke-width="15" stroke-linecap="round" stroke-linejoin="round" stroke-miterlimit="4" stroke-dasharray="none" stroke-opacity="" data-original="#000000" class=""></path></g><g id="g9521" transform="translate(69.05,186.8301)"><path d="M 0,0 C 0.058,-0.157 0.116,-0.313 0.175,-0.469" style="stroke:#000000;stroke-width:15;stroke-linecap:round;stroke-linejoin:round;stroke-miterlimit:4;stroke-dasharray:none;stroke-opacity:1" id="path9523" fill="none" stroke="#000000" stroke-width="15" stroke-linecap="round" stroke-linejoin="round" stroke-miterlimit="4" stroke-dasharray="none" stroke-opacity="" data-original="#000000" class=""></path></g><g id="g9525" transform="translate(81.4895,159.7554)"><path d="m 0,0 c 34.005,-61.407 99.483,-103.075 174.51,-103.075 80.245,0 149.567,47.665 181.141,116.165" style="stroke:#000000;stroke-width:15;stroke-linecap:round;stroke-linejoin:round;stroke-miterlimit:4;stroke-dasharray:0.977, 29.322;stroke-dashoffset:0;stroke-opacity:1" id="path9527" fill="none" stroke="#000000" stroke-width="15" stroke-linecap="round" stroke-linejoin="round" stroke-miterlimit="4" stroke-dasharray="0.977, 29.322" stroke-dashoffset="0" stroke-opacity="" data-original="#000000" class=""></path></g><g id="g9529" transform="translate(442.775,186.3606)"><path d="M 0,0 C 0.059,0.156 0.117,0.313 0.175,0.469" style="stroke:#000000;stroke-width:15;stroke-linecap:round;stroke-linejoin:round;stroke-miterlimit:4;stroke-dasharray:none;stroke-opacity:1" id="path9531" fill="none" stroke="#000000" stroke-width="15" stroke-linecap="round" stroke-linejoin="round" stroke-miterlimit="4" stroke-dasharray="none" stroke-opacity="" data-original="#000000" class=""></path></g><g id="g9533" transform="translate(160.93,392.4)"><path d="m 0,0 c 26.96,18.85 59.75,29.92 95.07,29.92 67.04,0 124.95,-39.87 151.25,-97.15" style="stroke:#000000;stroke-width:15;stroke-linecap:round;stroke-linejoin:round;stroke-miterlimit:10;stroke-dasharray:none;stroke-opacity:1" id="path9535" fill="none" stroke="#000000" stroke-width="15" stroke-linecap="round" stroke-linejoin="round" stroke-miterlimit="10" stroke-dasharray="none" stroke-opacity="" data-original="#000000" class=""></path></g><g id="g9537" transform="translate(134.44,369.39)"><path d="M 0,0 C -12.13,-12.98 -22.19,-27.89 -29.69,-44.22" style="stroke:#000000;stroke-width:15;stroke-linecap:round;stroke-linejoin:round;stroke-miterlimit:10;stroke-dasharray:none;stroke-opacity:1" id="path9539" fill="none" stroke="#000000" stroke-width="15" stroke-linecap="round" stroke-linejoin="round" stroke-miterlimit="10" stroke-dasharray="none" stroke-opacity="" data-original="#000000" class=""></path></g><g id="g9541" transform="translate(104.75,186.83)"><path d="m 0,0 c 26.3,-57.28 84.21,-97.15 151.25,-97.15 67.04,0 124.95,39.87 151.25,97.15" style="stroke:#000000;stroke-width:15;stroke-linecap:round;stroke-linejoin:round;stroke-miterlimit:10;stroke-dasharray:none;stroke-opacity:1" id="path9543" fill="none" stroke="#000000" stroke-width="15" stroke-linecap="round" stroke-linejoin="round" stroke-miterlimit="10" stroke-dasharray="none" stroke-opacity="" data-original="#000000" class=""></path></g><g id="g9545" transform="translate(333.23,186.83)"><path d="m 0,0 h 155.27 c 8.84,0 16,7.16 16,16 v 106.34 c 0,8.84 -7.16,16 -16,16 h -465 c -8.84,0 -16,-7.16 -16,-16 V 16 c 0,-8.84 7.16,-16 16,-16 H -35" style="stroke:#000000;stroke-width:15;stroke-linecap:round;stroke-linejoin:round;stroke-miterlimit:10;stroke-dasharray:none;stroke-opacity:1" id="path9547" fill="none" stroke="#000000" stroke-width="15" stroke-linecap="round" stroke-linejoin="round" stroke-miterlimit="10" stroke-dasharray="none" stroke-opacity="" data-original="#000000" class=""></path></g><g id="g9549" transform="translate(126.4466,221.8322)"><path d="m 0,0 25.66,67.373 c 0.524,1.282 2.339,1.284 2.866,0.003 L 53.952,0" style="stroke:#000000;stroke-width:15;stroke-linecap:round;stroke-linejoin:round;stroke-miterlimit:10;stroke-dasharray:none;stroke-opacity:1" id="path9551" fill="none" stroke="#000000" stroke-width="15" stroke-linecap="round" stroke-linejoin="round" stroke-miterlimit="10" stroke-dasharray="none" stroke-opacity="" data-original="#000000" class=""></path></g><g id="g9553" transform="translate(134.4491,238.6117)"><path d="M 0,0 H 38.076" style="stroke:#000000;stroke-width:15;stroke-linecap:round;stroke-linejoin:round;stroke-miterlimit:10;stroke-dasharray:none;stroke-opacity:1" id="path9555" fill="none" stroke="#000000" stroke-width="15" stroke-linecap="round" stroke-linejoin="round" stroke-miterlimit="10" stroke-dasharray="none" stroke-opacity="" data-original="#000000" class=""></path></g><g id="g9557" transform="translate(378.6818,289.8558)"><path d="M 0,0 H -28.531 V -67.712 H 0" style="stroke:#000000;stroke-width:15;stroke-linecap:round;stroke-linejoin:round;stroke-miterlimit:10;stroke-dasharray:none;stroke-opacity:1" id="path9559" fill="none" stroke="#000000" stroke-width="15" stroke-linecap="round" stroke-linejoin="round" stroke-miterlimit="10" stroke-dasharray="none" stroke-opacity="" data-original="#000000" class=""></path></g><g id="g9561" transform="translate(376.5782,256)"><path d="M 0,0 H -26.427" style="stroke:#000000;stroke-width:15;stroke-linecap:round;stroke-linejoin:round;stroke-miterlimit:10;stroke-dasharray:none;stroke-opacity:1" id="path9563" fill="none" stroke="#000000" stroke-width="15" stroke-linecap="round" stroke-linejoin="round" stroke-miterlimit="10" stroke-dasharray="none" stroke-opacity="" data-original="#000000" class=""></path></g><g id="g9565" transform="translate(405.6818,289.0882)"><path d="M 0,0 V -65.168" style="stroke:#000000;stroke-width:15;stroke-linecap:round;stroke-linejoin:round;stroke-miterlimit:10;stroke-dasharray:none;stroke-opacity:1" id="path9567" fill="none" stroke="#000000" stroke-width="15" stroke-linecap="round" stroke-linejoin="round" stroke-miterlimit="10" stroke-dasharray="none" stroke-opacity="" data-original="#000000" class=""></path></g><g id="g9569" transform="translate(451.243,256)"><path d="m 0,0 c 0,-18.272 -10.141,-32.73 -26.23,-33.011 -5.356,-0.094 -19.197,-0.146 -19.197,-0.146 0,0 -0.086,24.02 -0.086,33.23 0,7.564 -0.048,33.084 -0.048,33.084 H -26.78 C -9.133,33.157 0,18.272 0,0 Z" style="stroke:#000000;stroke-width:15;stroke-linecap:round;stroke-linejoin:round;stroke-miterlimit:10;stroke-dasharray:none;stroke-opacity:1" id="path9571" fill="none" stroke="#000000" stroke-width="15" stroke-linecap="round" stroke-linejoin="round" stroke-miterlimit="10" stroke-dasharray="none" stroke-opacity="" data-original="#000000" class=""></path></g><g id="g9573" transform="translate(249.5167,283.1429)"><path d="m 0,0 c 0,0 -12.262,10.307 -26.722,5.951 -13.277,-3.999 -15.134,-19.309 -5.529,-25.571 0,0 9.426,-4.205 19.88,-8.061 25.166,-9.283 14.326,-33.63 -5.933,-33.63 -10.146,0 -18.66,4.443 -23.814,10.13" style="stroke:#000000;stroke-width:15;stroke-linecap:round;stroke-linejoin:round;stroke-miterlimit:10;stroke-dasharray:none;stroke-opacity:1" id="path9575" fill="none" stroke="#000000" stroke-width="15" stroke-linecap="round" stroke-linejoin="round" stroke-miterlimit="10" stroke-dasharray="none" stroke-opacity="" data-original="#000000" class=""></path></g><g id="g9577" transform="translate(320.8926,283.1429)"><path d="m 0,0 c 0,0 -12.262,10.307 -26.722,5.951 -13.277,-3.999 -15.134,-19.309 -5.529,-25.571 0,0 9.426,-4.205 19.88,-8.061 25.166,-9.283 14.326,-33.63 -5.933,-33.63 -10.146,0 -18.66,4.443 -23.814,10.13" style="stroke:#000000;stroke-width:15;stroke-linecap:round;stroke-linejoin:round;stroke-miterlimit:10;stroke-dasharray:none;stroke-opacity:1" id="path9579" fill="none" stroke="#000000" stroke-width="15" stroke-linecap="round" stroke-linejoin="round" stroke-miterlimit="10" stroke-dasharray="none" stroke-opacity="" data-original="#000000" class=""></path></g><g id="g9581" transform="translate(60.757,290.1678)"><path d="M 0,0 V -68.336" style="stroke:#000000;stroke-width:15;stroke-linecap:round;stroke-linejoin:round;stroke-miterlimit:10;stroke-dasharray:none;stroke-opacity:1" id="path9583" fill="none" stroke="#000000" stroke-width="15" stroke-linecap="round" stroke-linejoin="round" stroke-miterlimit="10" stroke-dasharray="none" stroke-opacity="" data-original="#000000" class=""></path></g><g id="g9585" transform="translate(99.4466,270.8834)"><path d="m 0,0 c 0,-10.65 -9.012,-19.284 -19.662,-19.284 -5.282,0 -18.895,-0.085 -18.895,-0.085 0,0 -0.085,14.001 -0.085,19.369 0,4.409 -0.048,19.284 -0.048,19.284 h 19.028 C -9.012,19.284 0,10.65 0,0 Z" style="stroke:#000000;stroke-width:15;stroke-linecap:round;stroke-linejoin:round;stroke-miterlimit:10;stroke-dasharray:none;stroke-opacity:1" id="path9587" fill="none" stroke="#000000" stroke-width="15" stroke-linecap="round" stroke-linejoin="round" stroke-miterlimit="10" stroke-dasharray="none" stroke-opacity="" data-original="#000000" class=""></path></g><g id="g9589" transform="translate(316.0843,360.0634)"><path d="m 0,0 v 0 c -3.177,-5.5 -10.007,-7.817 -15.8,-5.212 -13.527,6.084 -28.518,9.469 -44.284,9.469 -15.766,0 -30.758,-3.385 -44.284,-9.469 -5.793,-2.605 -12.623,-0.288 -15.801,5.212 v 0 c -3.685,6.38 -1.102,14.597 5.618,17.618 16.639,7.48 35.077,11.639 54.467,11.639 19.39,0 37.828,-4.159 54.467,-11.639 C 1.103,14.597 3.685,6.38 0,0 Z" style="stroke:#000000;stroke-width:15;stroke-linecap:round;stroke-linejoin:round;stroke-miterlimit:10;stroke-dasharray:none;stroke-opacity:1" id="path9591" fill="none" stroke="#000000" stroke-width="15" stroke-linecap="round" stroke-linejoin="round" stroke-miterlimit="10" stroke-dasharray="none" stroke-opacity="" data-original="#000000" class=""></path></g><g id="g9593" transform="translate(316.0843,151.9366)"><path d="m 0,0 v 0 c 3.685,-6.38 1.103,-14.597 -5.617,-17.618 -16.639,-7.48 -35.077,-11.639 -54.467,-11.639 -19.39,0 -37.828,4.159 -54.467,11.639 -6.72,3.021 -9.303,11.238 -5.618,17.618 v 0 c 3.178,5.5 10.008,7.817 15.801,5.212 13.526,-6.084 28.518,-9.469 44.284,-9.469 15.766,0 30.757,3.385 44.284,9.469 C -10.007,7.817 -3.177,5.5 0,0 Z" style="stroke:#000000;stroke-width:15;stroke-linecap:round;stroke-linejoin:round;stroke-miterlimit:10;stroke-dasharray:none;stroke-opacity:1" id="path9595" fill="none" stroke="#000000" stroke-width="15" stroke-linecap="round" stroke-linejoin="round" stroke-miterlimit="10" stroke-dasharray="none" stroke-opacity="" data-original="#000000" class=""></path></g></g></g></g></g></svg>