<svg xmlns="http://www.w3.org/2000/svg" version="1.1" xmlns:xlink="http://www.w3.org/1999/xlink" xmlns:svgjs="http://svgjs.com/svgjs" width="512" height="512" x="0" y="0" viewBox="0 0 682.66669 682.66669" style="enable-background:new 0 0 512 512" xml:space="preserve" class=""><g><defs id="defs5659"><clipPath clipPathUnits="userSpaceOnUse" id="clipPath5669"><path d="M 0,512 H 512 V 0 H 0 Z" id="path5667" fill="#004975" data-original="#004975"></path></clipPath></defs><g id="g5661" transform="matrix(1.3333333,0,0,-1.3333333,0,682.66667)"><g id="g5663"><g id="g5665" clip-path="url(#clipPath5669)"><g id="g5671" transform="translate(34.1504,186.8301)"><path d="m 0,0 c 29.439,-94.53 117.63,-163.15 221.85,-163.15 104.219,0 192.41,68.62 221.849,163.15" style="stroke:#004975;stroke-width:15;stroke-linecap:round;stroke-linejoin:round;stroke-miterlimit:10;stroke-dasharray:none;stroke-opacity:1" id="path5673" fill="none" stroke="#004975" stroke-width="15" stroke-linecap="round" stroke-linejoin="round" stroke-miterlimit="10" stroke-dasharray="none" stroke-opacity="" data-original="#004975" class=""></path></g><g id="g5675" transform="translate(34.1504,325.1699)"><path d="M 0,0 C 29.439,94.53 117.63,163.15 221.85,163.15 326.069,163.15 414.26,94.53 443.699,0" style="stroke:#004975;stroke-width:15;stroke-linecap:round;stroke-linejoin:round;stroke-miterlimit:10;stroke-dasharray:none;stroke-opacity:1" id="path5677" fill="none" stroke="#004975" stroke-width="15" stroke-linecap="round" stroke-linejoin="round" stroke-miterlimit="10" stroke-dasharray="none" stroke-opacity="" data-original="#004975" class=""></path></g><g id="g5679" transform="translate(69.0498,325.1699)"><path d="M 0,0 C 0.059,0.156 0.116,0.313 0.175,0.47" style="stroke:#004975;stroke-width:15;stroke-linecap:round;stroke-linejoin:round;stroke-miterlimit:4;stroke-dasharray:none;stroke-opacity:1" id="path5681" fill="none" stroke="#004975" stroke-width="15" stroke-linecap="round" stroke-linejoin="round" stroke-miterlimit="4" stroke-dasharray="none" stroke-opacity="" data-original="#004975" class=""></path></g><g id="g5683" transform="translate(81.4893,352.2441)"><path d="m 0,0 c 34.005,61.407 99.483,103.076 174.511,103.076 80.245,0 149.566,-47.666 181.14,-116.166" style="stroke:#004975;stroke-width:15;stroke-linecap:round;stroke-linejoin:round;stroke-miterlimit:4;stroke-dasharray:0.977, 29.322;stroke-dashoffset:0;stroke-opacity:1" id="path5685" fill="none" stroke="#004975" stroke-width="15" stroke-linecap="round" stroke-linejoin="round" stroke-miterlimit="4" stroke-dasharray="0.977, 29.322" stroke-dashoffset="0" stroke-opacity="" data-original="#004975" class=""></path></g><g id="g5687" transform="translate(442.7754,325.6396)"><path d="M 0,0 C 0.059,-0.156 0.116,-0.313 0.175,-0.47" style="stroke:#004975;stroke-width:15;stroke-linecap:round;stroke-linejoin:round;stroke-miterlimit:4;stroke-dasharray:none;stroke-opacity:1" id="path5689" fill="none" stroke="#004975" stroke-width="15" stroke-linecap="round" stroke-linejoin="round" stroke-miterlimit="4" stroke-dasharray="none" stroke-opacity="" data-original="#004975" class=""></path></g><g id="g5691" transform="translate(69.0498,186.8301)"><path d="M 0,0 C 0.059,-0.156 0.116,-0.313 0.175,-0.47" style="stroke:#004975;stroke-width:15;stroke-linecap:round;stroke-linejoin:round;stroke-miterlimit:4;stroke-dasharray:none;stroke-opacity:1" id="path5693" fill="none" stroke="#004975" stroke-width="15" stroke-linecap="round" stroke-linejoin="round" stroke-miterlimit="4" stroke-dasharray="none" stroke-opacity="" data-original="#004975" class=""></path></g><g id="g5695" transform="translate(81.4893,159.7559)"><path d="m 0,0 c 34.005,-61.407 99.483,-103.076 174.511,-103.076 80.245,0 149.566,47.666 181.14,116.166" style="stroke:#004975;stroke-width:15;stroke-linecap:round;stroke-linejoin:round;stroke-miterlimit:4;stroke-dasharray:0.977, 29.322;stroke-dashoffset:0;stroke-opacity:1" id="path5697" fill="none" stroke="#004975" stroke-width="15" stroke-linecap="round" stroke-linejoin="round" stroke-miterlimit="4" stroke-dasharray="0.977, 29.322" stroke-dashoffset="0" stroke-opacity="" data-original="#004975" class=""></path></g><g id="g5699" transform="translate(442.7754,186.3604)"><path d="M 0,0 C 0.059,0.156 0.116,0.313 0.175,0.47" style="stroke:#004975;stroke-width:15;stroke-linecap:round;stroke-linejoin:round;stroke-miterlimit:4;stroke-dasharray:none;stroke-opacity:1" id="path5701" fill="none" stroke="#004975" stroke-width="15" stroke-linecap="round" stroke-linejoin="round" stroke-miterlimit="4" stroke-dasharray="none" stroke-opacity="" data-original="#004975" class=""></path></g><g id="g5703" transform="translate(160.9297,392.4004)"><path d="m 0,0 c 26.96,18.85 59.75,29.92 95.07,29.92 67.04,0 124.951,-39.87 151.25,-97.15" style="stroke:#004975;stroke-width:15;stroke-linecap:round;stroke-linejoin:round;stroke-miterlimit:10;stroke-dasharray:none;stroke-opacity:1" id="path5705" fill="none" stroke="#004975" stroke-width="15" stroke-linecap="round" stroke-linejoin="round" stroke-miterlimit="10" stroke-dasharray="none" stroke-opacity="" data-original="#004975" class=""></path></g><g id="g5707" transform="translate(134.4404,369.3896)"><path d="M 0,0 C -12.131,-12.979 -22.19,-27.89 -29.69,-44.22" style="stroke:#004975;stroke-width:15;stroke-linecap:round;stroke-linejoin:round;stroke-miterlimit:10;stroke-dasharray:none;stroke-opacity:1" id="path5709" fill="none" stroke="#004975" stroke-width="15" stroke-linecap="round" stroke-linejoin="round" stroke-miterlimit="10" stroke-dasharray="none" stroke-opacity="" data-original="#004975" class=""></path></g><g id="g5711" transform="translate(104.75,186.8301)"><path d="m 0,0 c 26.3,-57.28 84.21,-97.15 151.25,-97.15 67.04,0 124.95,39.87 151.25,97.15" style="stroke:#004975;stroke-width:15;stroke-linecap:round;stroke-linejoin:round;stroke-miterlimit:10;stroke-dasharray:none;stroke-opacity:1" id="path5713" fill="none" stroke="#004975" stroke-width="15" stroke-linecap="round" stroke-linejoin="round" stroke-miterlimit="10" stroke-dasharray="none" stroke-opacity="" data-original="#004975" class=""></path></g><g id="g5715" transform="translate(333.2305,186.8301)"><path d="m 0,0 h 155.27 c 8.839,0 16,7.16 16,16 v 106.34 c 0,8.84 -7.161,16 -16,16 h -465 c -8.84,0 -16,-7.16 -16,-16 V 16 c 0,-8.84 7.16,-16 16,-16 H -35" style="stroke:#004975;stroke-width:15;stroke-linecap:round;stroke-linejoin:round;stroke-miterlimit:10;stroke-dasharray:none;stroke-opacity:1" id="path5717" fill="none" stroke="#004975" stroke-width="15" stroke-linecap="round" stroke-linejoin="round" stroke-miterlimit="10" stroke-dasharray="none" stroke-opacity="" data-original="#004975" class=""></path></g><g id="g5719" transform="translate(126.4463,221.832)"><path d="m 0,0 25.66,67.373 c 0.525,1.282 2.339,1.284 2.866,0.003 L 53.953,0" style="stroke:#004975;stroke-width:15;stroke-linecap:round;stroke-linejoin:round;stroke-miterlimit:10;stroke-dasharray:none;stroke-opacity:1" id="path5721" fill="none" stroke="#004975" stroke-width="15" stroke-linecap="round" stroke-linejoin="round" stroke-miterlimit="10" stroke-dasharray="none" stroke-opacity="" data-original="#004975" class=""></path></g><g id="g5723" transform="translate(134.4492,238.6113)"><path d="M 0,0 H 38.076" style="stroke:#004975;stroke-width:15;stroke-linecap:round;stroke-linejoin:round;stroke-miterlimit:10;stroke-dasharray:none;stroke-opacity:1" id="path5725" fill="none" stroke="#004975" stroke-width="15" stroke-linecap="round" stroke-linejoin="round" stroke-miterlimit="10" stroke-dasharray="none" stroke-opacity="" data-original="#004975" class=""></path></g><g id="g5727" transform="translate(378.6816,289.8555)"><path d="M 0,0 H -28.53 V -67.711 H 0" style="stroke:#004975;stroke-width:15;stroke-linecap:round;stroke-linejoin:round;stroke-miterlimit:10;stroke-dasharray:none;stroke-opacity:1" id="path5729" fill="none" stroke="#004975" stroke-width="15" stroke-linecap="round" stroke-linejoin="round" stroke-miterlimit="10" stroke-dasharray="none" stroke-opacity="" data-original="#004975" class=""></path></g><g id="g5731" transform="translate(376.5781,256)"><path d="M 0,0 H -26.427" style="stroke:#004975;stroke-width:15;stroke-linecap:round;stroke-linejoin:round;stroke-miterlimit:10;stroke-dasharray:none;stroke-opacity:1" id="path5733" fill="none" stroke="#004975" stroke-width="15" stroke-linecap="round" stroke-linejoin="round" stroke-miterlimit="10" stroke-dasharray="none" stroke-opacity="" data-original="#004975" class=""></path></g><g id="g5735" transform="translate(405.6816,289.0879)"><path d="M 0,0 V -65.168" style="stroke:#004975;stroke-width:15;stroke-linecap:round;stroke-linejoin:round;stroke-miterlimit:10;stroke-dasharray:none;stroke-opacity:1" id="path5737" fill="none" stroke="#004975" stroke-width="15" stroke-linecap="round" stroke-linejoin="round" stroke-miterlimit="10" stroke-dasharray="none" stroke-opacity="" data-original="#004975" class=""></path></g><g id="g5739" transform="translate(451.2432,256)"><path d="m 0,0 c 0,-18.271 -10.141,-32.73 -26.23,-33.011 -5.356,-0.093 -19.197,-0.146 -19.197,-0.146 0,0 -0.087,24.02 -0.087,33.23 0,7.565 -0.048,33.084 -0.048,33.084 H -26.78 C -9.133,33.157 0,18.271 0,0 Z" style="stroke:#004975;stroke-width:15;stroke-linecap:round;stroke-linejoin:round;stroke-miterlimit:10;stroke-dasharray:none;stroke-opacity:1" id="path5741" fill="none" stroke="#004975" stroke-width="15" stroke-linecap="round" stroke-linejoin="round" stroke-miterlimit="10" stroke-dasharray="none" stroke-opacity="" data-original="#004975" class=""></path></g><g id="g5743" transform="translate(249.5166,283.1426)"><path d="m 0,0 c 0,0 -12.262,10.308 -26.722,5.952 -13.277,-4 -15.134,-19.309 -5.529,-25.572 0,0 9.426,-4.205 19.881,-8.062 25.165,-9.282 14.325,-33.629 -5.935,-33.629 -10.144,0 -18.659,4.444 -23.812,10.13" style="stroke:#004975;stroke-width:15;stroke-linecap:round;stroke-linejoin:round;stroke-miterlimit:10;stroke-dasharray:none;stroke-opacity:1" id="path5745" fill="none" stroke="#004975" stroke-width="15" stroke-linecap="round" stroke-linejoin="round" stroke-miterlimit="10" stroke-dasharray="none" stroke-opacity="" data-original="#004975" class=""></path></g><g id="g5747" transform="translate(320.8926,283.1426)"><path d="m 0,0 c 0,0 -12.262,10.308 -26.722,5.952 -13.277,-4 -15.134,-19.309 -5.529,-25.572 0,0 9.426,-4.205 19.881,-8.062 25.165,-9.282 14.325,-33.629 -5.935,-33.629 -10.144,0 -18.659,4.444 -23.812,10.13" style="stroke:#004975;stroke-width:15;stroke-linecap:round;stroke-linejoin:round;stroke-miterlimit:10;stroke-dasharray:none;stroke-opacity:1" id="path5749" fill="none" stroke="#004975" stroke-width="15" stroke-linecap="round" stroke-linejoin="round" stroke-miterlimit="10" stroke-dasharray="none" stroke-opacity="" data-original="#004975" class=""></path></g><g id="g5751" transform="translate(60.7568,290.168)"><path d="M 0,0 V -68.336" style="stroke:#004975;stroke-width:15;stroke-linecap:round;stroke-linejoin:round;stroke-miterlimit:10;stroke-dasharray:none;stroke-opacity:1" id="path5753" fill="none" stroke="#004975" stroke-width="15" stroke-linecap="round" stroke-linejoin="round" stroke-miterlimit="10" stroke-dasharray="none" stroke-opacity="" data-original="#004975" class=""></path></g><g id="g5755" transform="translate(99.4463,270.8838)"><path d="m 0,0 c 0,-10.65 -9.012,-19.285 -19.662,-19.285 -5.281,0 -18.895,-0.085 -18.895,-0.085 0,0 -0.085,14.001 -0.085,19.37 0,4.409 -0.047,19.284 -0.047,19.284 h 19.027 C -9.012,19.284 0,10.65 0,0 Z" style="stroke:#004975;stroke-width:15;stroke-linecap:round;stroke-linejoin:round;stroke-miterlimit:10;stroke-dasharray:none;stroke-opacity:1" id="path5757" fill="none" stroke="#004975" stroke-width="15" stroke-linecap="round" stroke-linejoin="round" stroke-miterlimit="10" stroke-dasharray="none" stroke-opacity="" data-original="#004975" class=""></path></g><g id="g5759" transform="translate(316.084,360.0635)"><path d="m 0,0 v 0 c -3.177,-5.5 -10.007,-7.817 -15.8,-5.212 -13.526,6.084 -28.518,9.469 -44.284,9.469 -15.766,0 -30.758,-3.385 -44.284,-9.469 -5.793,-2.605 -12.623,-0.288 -15.8,5.212 -3.686,6.38 -1.103,14.597 5.617,17.618 16.639,7.48 35.077,11.639 54.467,11.639 19.39,0 37.828,-4.159 54.467,-11.639 C 1.103,14.597 3.686,6.38 0,0 Z" style="stroke:#004975;stroke-width:15;stroke-linecap:round;stroke-linejoin:round;stroke-miterlimit:10;stroke-dasharray:none;stroke-opacity:1" id="path5761" fill="none" stroke="#004975" stroke-width="15" stroke-linecap="round" stroke-linejoin="round" stroke-miterlimit="10" stroke-dasharray="none" stroke-opacity="" data-original="#004975" class=""></path></g><g id="g5763" transform="translate(316.084,151.9365)"><path d="m 0,0 v 0 c 3.686,-6.38 1.103,-14.597 -5.617,-17.618 -16.639,-7.48 -35.077,-11.639 -54.467,-11.639 -19.39,0 -37.828,4.159 -54.467,11.639 -6.72,3.021 -9.303,11.238 -5.617,17.618 3.177,5.5 10.007,7.817 15.8,5.212 13.526,-6.084 28.518,-9.469 44.284,-9.469 15.766,0 30.758,3.385 44.284,9.469 C -10.007,7.817 -3.177,5.5 0,0 Z" style="stroke:#004975;stroke-width:15;stroke-linecap:round;stroke-linejoin:round;stroke-miterlimit:10;stroke-dasharray:none;stroke-opacity:1" id="path5765" fill="none" stroke="#004975" stroke-width="15" stroke-linecap="round" stroke-linejoin="round" stroke-miterlimit="10" stroke-dasharray="none" stroke-opacity="" data-original="#004975" class=""></path></g></g></g></g></g></svg>